<svg width="31" height="30" viewBox="0 0 31 30" fill="none" xmlns="http://www.w3.org/2000/svg">
<path d="M11.8095 3C9.3637 3 7.38095 5.01473 7.38095 7.50001C7.38095 9.98529 9.3637 12 11.8095 12C14.2554 12 16.2381 9.98529 16.2381 7.50001C16.2381 5.01473 14.2554 3 11.8095 3ZM19.1905 7.50001C19.1905 9.59349 18.3464 11.4866 16.985 12.8472C18.1431 13.2606 19.1753 13.8128 20.0636 14.4747C20.721 14.9648 20.863 15.9035 20.3807 16.5714C19.8986 17.2395 18.9748 17.3838 18.3173 16.8938C16.8383 15.7914 14.6472 15 11.8095 15C5.80251 15 2.95238 18.4052 2.95238 21C2.95238 21.8285 2.29146 22.5 1.47619 22.5C0.66092 22.5 0 21.8285 0 21C0 17.4389 2.58248 14.3049 6.64159 12.8549C5.27585 11.4938 4.42857 9.59742 4.42857 7.50001C4.42857 3.35787 7.73314 0 11.8095 0C15.8859 0 19.1905 3.35787 19.1905 7.50001ZM24.6629 20.5607C25.2393 19.9749 25.2393 19.0251 24.6629 18.4394C24.0864 17.8536 23.1517 17.8536 22.5752 18.4394L18.1467 22.9394C17.5702 23.5251 17.5702 24.4749 18.1467 25.0607L22.5752 29.5607C23.1517 30.1464 24.0864 30.1464 24.6629 29.5607C25.2393 28.9749 25.2393 28.0251 24.6629 27.4394L22.7543 25.5H29.5238C30.3391 25.5 31 24.8285 31 24C31 23.1716 30.3391 22.5 29.5238 22.5H22.7543L24.6629 20.5607Z" fill="white"/>
<path d="M11.8095 3C9.3637 3 7.38095 5.01473 7.38095 7.50001C7.38095 9.98529 9.3637 12 11.8095 12C14.2554 12 16.2381 9.98529 16.2381 7.50001C16.2381 5.01473 14.2554 3 11.8095 3ZM19.1905 7.50001C19.1905 9.59349 18.3464 11.4866 16.985 12.8472C18.1431 13.2606 19.1753 13.8128 20.0636 14.4747C20.721 14.9648 20.863 15.9035 20.3807 16.5714C19.8986 17.2395 18.9748 17.3838 18.3173 16.8938C16.8383 15.7914 14.6472 15 11.8095 15C5.80251 15 2.95238 18.4052 2.95238 21C2.95238 21.8285 2.29146 22.5 1.47619 22.5C0.66092 22.5 0 21.8285 0 21C0 17.4389 2.58248 14.3049 6.64159 12.8549C5.27585 11.4938 4.42857 9.59742 4.42857 7.50001C4.42857 3.35787 7.73314 0 11.8095 0C15.8859 0 19.1905 3.35787 19.1905 7.50001ZM24.6629 20.5607C25.2393 19.9749 25.2393 19.0251 24.6629 18.4394C24.0864 17.8536 23.1517 17.8536 22.5752 18.4394L18.1467 22.9394C17.5702 23.5251 17.5702 24.4749 18.1467 25.0607L22.5752 29.5607C23.1517 30.1464 24.0864 30.1464 24.6629 29.5607C25.2393 28.9749 25.2393 28.0251 24.6629 27.4394L22.7543 25.5H29.5238C30.3391 25.5 31 24.8285 31 24C31 23.1716 30.3391 22.5 29.5238 22.5H22.7543L24.6629 20.5607Z" stroke="white"/>
</svg>
