<svg width="25" height="25" viewBox="0 0 25 25" fill="none" xmlns="http://www.w3.org/2000/svg">
<path fill-rule="evenodd" clip-rule="evenodd" d="M20.0073 6.46564C20.1971 6.26918 20.302 6.00605 20.2997 5.73293C20.2973 5.45981 20.1877 5.19855 19.9946 5.00541C19.8015 4.81228 19.5402 4.70273 19.2671 4.70036C18.994 4.69798 18.7308 4.80298 18.5344 4.99273L12.5 11.0271L6.46564 4.99273C6.26918 4.80298 6.00605 4.69798 5.73293 4.70036C5.45981 4.70273 5.19854 4.81228 5.00541 5.00541C4.81228 5.19855 4.70273 5.45981 4.70035 5.73293C4.69798 6.00605 4.80297 6.26918 4.99272 6.46564L11.0271 12.5L4.99272 18.5344C4.89323 18.6305 4.81388 18.7454 4.75928 18.8725C4.70469 18.9996 4.67595 19.1363 4.67475 19.2746C4.67355 19.4129 4.69991 19.5501 4.75228 19.6781C4.80466 19.8061 4.88201 19.9224 4.97981 20.0202C5.07761 20.118 5.19392 20.1954 5.32194 20.2477C5.44995 20.3001 5.58712 20.3265 5.72543 20.3253C5.86374 20.3241 6.00043 20.2953 6.12752 20.2407C6.25461 20.1862 6.36955 20.1068 6.46564 20.0073L12.5 13.9729L18.5344 20.0073C18.7308 20.1971 18.994 20.3021 19.2671 20.2997C19.5402 20.2973 19.8015 20.1878 19.9946 19.9946C20.1877 19.8015 20.2973 19.5402 20.2997 19.2671C20.302 18.994 20.1971 18.7309 20.0073 18.5344L13.9729 12.5L20.0073 6.46564Z" fill="white"/>
</svg>
