<svg width="489" height="522" viewBox="0 0 489 522" fill="none" xmlns="http://www.w3.org/2000/svg">
<path d="M11 86.7577H151M151 86.7577V44.3333C151 25.924 165.924 11 184.333 11H304.333C322.743 11 337.667 25.924 337.667 44.3333V86.7577M151 86.7577H337.667M477.667 86.7577H337.667M57.6667 147.364V389.787C57.6667 446.927 57.6667 475.497 75.891 493.25C94.1157 511 123.447 511 182.11 511H306.557C365.22 511 394.55 511 412.777 493.25C431 475.497 431 446.927 431 389.787V147.364M151 207.97V389.787M244.333 207.97V389.787M337.667 207.97V389.787" stroke="white" stroke-width="22" stroke-linecap="round" stroke-linejoin="round"/>
</svg>
